{
    "asset" : {
        "generator" : "Khronos glTF Blender I/O v1.8.19",
        "version" : "2.0"
    },
    "scene" : 0,
    "scenes" : [
        {
            "name" : "Scene",
            "nodes" : [
                0,
                1,
                2
            ]
        }
    ],
    "nodes" : [
        {
            "mesh" : 0,
            "name" : "Body"
        },
        {
            "mesh" : 1,
            "name" : "Arm",
            "translation" : [
                -0.6084136962890625,
                0.9484025239944458,
                0
            ]
        },
        {
            "mesh" : 2,
            "name" : "Joint",
            "translation" : [
                -0.6084136962890625,
                0.9484025239944458,
                0
            ]
        }
    ],
    "materials" : [
        {
            "doubleSided" : true,
            "name" : "Metal_Grey",
            "pbrMetallicRoughness" : {
                "baseColorFactor" : [
                    0.282353013753891,
                    0.3019610047340393,
                    0.35686299204826355,
                    1
                ],
                "metallicFactor" : 0,
                "roughnessFactor" : 0.8945907354354858
            }
        },
        {
            "doubleSided" : true,
            "name" : "Metal_Grey_Dark",
            "pbrMetallicRoughness" : {
                "baseColorFactor" : [
                    0.10588199645280838,
                    0.10980399698019028,
                    0.12156900018453598,
                    1
                ],
                "metallicFactor" : 0,
                "roughnessFactor" : 0.8945907354354858
            }
        },
        {
            "doubleSided" : true,
            "name" : "Metal_white",
            "pbrMetallicRoughness" : {
                "metallicFactor" : 0,
                "roughnessFactor" : 0.8945907354354858
            }
        },
        {
            "doubleSided" : true,
            "name" : "Metal_Blue",
            "pbrMetallicRoughness" : {
                "baseColorFactor" : [
                    0.17647099494934082,
                    0.22745099663734436,
                    0.5294119715690613,
                    1
                ],
                "metallicFactor" : 0,
                "roughnessFactor" : 0.8945907354354858
            }
        },
        {
            "doubleSided" : true,
            "name" : "Material__50",
            "pbrMetallicRoughness" : {
                "baseColorFactor" : [
                    0.8588240146636963,
                    0.8588240146636963,
                    0.8588240146636963,
                    1
                ],
                "metallicFactor" : 0,
                "roughnessFactor" : 0.8945907354354858
            }
        },
        {
            "doubleSided" : true,
            "name" : "Metal_Yellow",
            "pbrMetallicRoughness" : {
                "baseColorFactor" : [
                    0.831142246723175,
                    0.8509809970855713,
                    0.1274830847978592,
                    1
                ],
                "metallicFactor" : 0,
                "roughnessFactor" : 0.8945907354354858
            }
        }
    ],
    "meshes" : [
        {
            "name" : "Siemens_Cios_Alpha_C_Arm",
            "primitives" : [
                {
                    "attributes" : {
                        "POSITION" : 0,
                        "NORMAL" : 1,
                        "TEXCOORD_0" : 2
                    },
                    "indices" : 3,
                    "material" : 0
                },
                {
                    "attributes" : {
                        "POSITION" : 4,
                        "NORMAL" : 5,
                        "TEXCOORD_0" : 6
                    },
                    "indices" : 7,
                    "material" : 1
                },
                {
                    "attributes" : {
                        "POSITION" : 8,
                        "NORMAL" : 9,
                        "TEXCOORD_0" : 10
                    },
                    "indices" : 11,
                    "material" : 2
                },
                {
                    "attributes" : {
                        "POSITION" : 12,
                        "NORMAL" : 13,
                        "TEXCOORD_0" : 14
                    },
                    "indices" : 15,
                    "material" : 3
                },
                {
                    "attributes" : {
                        "POSITION" : 16,
                        "NORMAL" : 17,
                        "TEXCOORD_0" : 18
                    },
                    "indices" : 19,
                    "material" : 4
                },
                {
                    "attributes" : {
                        "POSITION" : 20,
                        "NORMAL" : 21,
                        "TEXCOORD_0" : 22
                    },
                    "indices" : 23,
                    "material" : 5
                }
            ]
        },
        {
            "name" : "Siemens_Cios_Alpha_C_Arm.001",
            "primitives" : [
                {
                    "attributes" : {
                        "POSITION" : 24,
                        "NORMAL" : 25,
                        "TEXCOORD_0" : 26
                    },
                    "indices" : 27,
                    "material" : 0
                },
                {
                    "attributes" : {
                        "POSITION" : 28,
                        "NORMAL" : 29,
                        "TEXCOORD_0" : 30
                    },
                    "indices" : 31,
                    "material" : 2
                },
                {
                    "attributes" : {
                        "POSITION" : 32,
                        "NORMAL" : 33,
                        "TEXCOORD_0" : 34
                    },
                    "indices" : 35,
                    "material" : 3
                }
            ]
        },
        {
            "name" : "Siemens_Cios_Alpha_C_Arm.006",
            "primitives" : [
                {
                    "attributes" : {
                        "POSITION" : 36,
                        "NORMAL" : 37,
                        "TEXCOORD_0" : 38
                    },
                    "indices" : 39,
                    "material" : 2
                },
                {
                    "attributes" : {
                        "POSITION" : 40,
                        "NORMAL" : 41,
                        "TEXCOORD_0" : 42
                    },
                    "indices" : 43,
                    "material" : 5
                }
            ]
        }
    ],
    "accessors" : [
        {
            "bufferView" : 0,
            "componentType" : 5126,
            "count" : 8703,
            "max" : [
                0.9803400039672852,
                0.8718299865722656,
                0.2912300229072571
            ],
            "min" : [
                -0.2567799985408783,
                0.041780002415180206,
                -0.28519999980926514
            ],
            "type" : "VEC3"
        },
        {
            "bufferView" : 1,
            "componentType" : 5126,
            "count" : 8703,
            "type" : "VEC3"
        },
        {
            "bufferView" : 2,
            "componentType" : 5126,
            "count" : 8703,
            "type" : "VEC2"
        },
        {
            "bufferView" : 3,
            "componentType" : 5123,
            "count" : 49788,
            "type" : "SCALAR"
        },
        {
            "bufferView" : 4,
            "componentType" : 5126,
            "count" : 5200,
            "max" : [
                0.3493800163269043,
                0.24397000670433044,
                0.4208400249481201
            ],
            "min" : [
                -0.27077001333236694,
                0.005150000099092722,
                -0.4208400249481201
            ],
            "type" : "VEC3"
        },
        {
            "bufferView" : 5,
            "componentType" : 5126,
            "count" : 5200,
            "type" : "VEC3"
        },
        {
            "bufferView" : 6,
            "componentType" : 5126,
            "count" : 5200,
            "type" : "VEC2"
        },
        {
            "bufferView" : 7,
            "componentType" : 5123,
            "count" : 29160,
            "type" : "SCALAR"
        },
        {
            "bufferView" : 8,
            "componentType" : 5126,
            "count" : 6463,
            "max" : [
                0.9782999753952026,
                1.0758399963378906,
                0.4083099961280823
            ],
            "min" : [
                -0.26753997802734375,
                0,
                -0.41019999980926514
            ],
            "type" : "VEC3"
        },
        {
            "bufferView" : 9,
            "componentType" : 5126,
            "count" : 6463,
            "type" : "VEC3"
        },
        {
            "bufferView" : 10,
            "componentType" : 5126,
            "count" : 6463,
            "type" : "VEC2"
        },
        {
            "bufferView" : 11,
            "componentType" : 5123,
            "count" : 36318,
            "type" : "SCALAR"
        },
        {
            "bufferView" : 12,
            "componentType" : 5126,
            "count" : 124,
            "max" : [
                -0.20778000354766846,
                0.059759996831417084,
                0.10632999986410141
            ],
            "min" : [
                -0.23002000153064728,
                0.03751999884843826,
                0.10632999986410141
            ],
            "type" : "VEC3"
        },
        {
            "bufferView" : 13,
            "componentType" : 5126,
            "count" : 124,
            "type" : "VEC3"
        },
        {
            "bufferView" : 14,
            "componentType" : 5126,
            "count" : 124,
            "type" : "VEC2"
        },
        {
            "bufferView" : 15,
            "componentType" : 5123,
            "count" : 366,
            "type" : "SCALAR"
        },
        {
            "bufferView" : 16,
            "componentType" : 5126,
            "count" : 1429,
            "max" : [
                0.8237299919128418,
                0.6411600112915039,
                0.2791000008583069
            ],
            "min" : [
                0.0975400060415268,
                0.20385998487472534,
                -0.26952001452445984
            ],
            "type" : "VEC3"
        },
        {
            "bufferView" : 17,
            "componentType" : 5126,
            "count" : 1429,
            "type" : "VEC3"
        },
        {
            "bufferView" : 18,
            "componentType" : 5126,
            "count" : 1429,
            "type" : "VEC2"
        },
        {
            "bufferView" : 19,
            "componentType" : 5123,
            "count" : 7152,
            "type" : "SCALAR"
        },
        {
            "bufferView" : 20,
            "componentType" : 5126,
            "count" : 128,
            "max" : [
                0.4994699954986572,
                1.0594799518585205,
                0.11478999257087708
            ],
            "min" : [
                0.4994699954986572,
                0.8394800424575806,
                -0.10521000623703003
            ],
            "type" : "VEC3"
        },
        {
            "bufferView" : 21,
            "componentType" : 5126,
            "count" : 128,
            "type" : "VEC3"
        },
        {
            "bufferView" : 22,
            "componentType" : 5126,
            "count" : 128,
            "type" : "VEC2"
        },
        {
            "bufferView" : 23,
            "componentType" : 5123,
            "count" : 378,
            "type" : "SCALAR"
        },
        {
            "bufferView" : 24,
            "componentType" : 5126,
            "count" : 13534,
            "max" : [
                0.6101336479187012,
                0.6871506571769714,
                0.20493969321250916
            ],
            "min" : [
                -0.45280686020851135,
                -0.7577993273735046,
                -0.20936845242977142
            ],
            "type" : "VEC3"
        },
        {
            "bufferView" : 25,
            "componentType" : 5126,
            "count" : 13534,
            "type" : "VEC3"
        },
        {
            "bufferView" : 26,
            "componentType" : 5126,
            "count" : 13534,
            "type" : "VEC2"
        },
        {
            "bufferView" : 27,
            "componentType" : 5123,
            "count" : 78864,
            "type" : "SCALAR"
        },
        {
            "bufferView" : 28,
            "componentType" : 5126,
            "count" : 11182,
            "max" : [
                0.7298821210861206,
                0.7228407263755798,
                0.20454946160316467
            ],
            "min" : [
                -0.4527268707752228,
                -0.7616493105888367,
                -0.2089880108833313
            ],
            "type" : "VEC3"
        },
        {
            "bufferView" : 29,
            "componentType" : 5126,
            "count" : 11182,
            "type" : "VEC3"
        },
        {
            "bufferView" : 30,
            "componentType" : 5126,
            "count" : 11182,
            "type" : "VEC2"
        },
        {
            "bufferView" : 31,
            "componentType" : 5123,
            "count" : 63624,
            "type" : "SCALAR"
        },
        {
            "bufferView" : 32,
            "componentType" : 5126,
            "count" : 252,
            "max" : [
                0.7298821210861206,
                0.7228407263755798,
                0.03273722529411316
            ],
            "min" : [
                -0.22739258408546448,
                -0.6471193432807922,
                -0.03270120918750763
            ],
            "type" : "VEC3"
        },
        {
            "bufferView" : 33,
            "componentType" : 5126,
            "count" : 252,
            "type" : "VEC3"
        },
        {
            "bufferView" : 34,
            "componentType" : 5126,
            "count" : 252,
            "type" : "VEC2"
        },
        {
            "bufferView" : 35,
            "componentType" : 5123,
            "count" : 744,
            "type" : "SCALAR"
        },
        {
            "bufferView" : 36,
            "componentType" : 5126,
            "count" : 506,
            "max" : [
                0.8974131345748901,
                0.16349166631698608,
                0.13716402649879456
            ],
            "min" : [
                0.6644530892372131,
                -0.16096842288970947,
                -0.13772596418857574
            ],
            "type" : "VEC3"
        },
        {
            "bufferView" : 37,
            "componentType" : 5126,
            "count" : 506,
            "type" : "VEC3"
        },
        {
            "bufferView" : 38,
            "componentType" : 5126,
            "count" : 506,
            "type" : "VEC2"
        },
        {
            "bufferView" : 39,
            "componentType" : 5123,
            "count" : 3024,
            "type" : "SCALAR"
        },
        {
            "bufferView" : 40,
            "componentType" : 5126,
            "count" : 384,
            "max" : [
                1.0270130634307861,
                0.129641592502594,
                0.11129404604434967
            ],
            "min" : [
                0.877013087272644,
                -0.1092267632484436,
                -0.10870595276355743
            ],
            "type" : "VEC3"
        },
        {
            "bufferView" : 41,
            "componentType" : 5126,
            "count" : 384,
            "type" : "VEC3"
        },
        {
            "bufferView" : 42,
            "componentType" : 5126,
            "count" : 384,
            "type" : "VEC2"
        },
        {
            "bufferView" : 43,
            "componentType" : 5123,
            "count" : 1146,
            "type" : "SCALAR"
        }
    ],
    "bufferViews" : [
        {
            "buffer" : 0,
            "byteLength" : 104436,
            "byteOffset" : 0
        },
        {
            "buffer" : 0,
            "byteLength" : 104436,
            "byteOffset" : 104436
        },
        {
            "buffer" : 0,
            "byteLength" : 69624,
            "byteOffset" : 208872
        },
        {
            "buffer" : 0,
            "byteLength" : 99576,
            "byteOffset" : 278496
        },
        {
            "buffer" : 0,
            "byteLength" : 62400,
            "byteOffset" : 378072
        },
        {
            "buffer" : 0,
            "byteLength" : 62400,
            "byteOffset" : 440472
        },
        {
            "buffer" : 0,
            "byteLength" : 41600,
            "byteOffset" : 502872
        },
        {
            "buffer" : 0,
            "byteLength" : 58320,
            "byteOffset" : 544472
        },
        {
            "buffer" : 0,
            "byteLength" : 77556,
            "byteOffset" : 602792
        },
        {
            "buffer" : 0,
            "byteLength" : 77556,
            "byteOffset" : 680348
        },
        {
            "buffer" : 0,
            "byteLength" : 51704,
            "byteOffset" : 757904
        },
        {
            "buffer" : 0,
            "byteLength" : 72636,
            "byteOffset" : 809608
        },
        {
            "buffer" : 0,
            "byteLength" : 1488,
            "byteOffset" : 882244
        },
        {
            "buffer" : 0,
            "byteLength" : 1488,
            "byteOffset" : 883732
        },
        {
            "buffer" : 0,
            "byteLength" : 992,
            "byteOffset" : 885220
        },
        {
            "buffer" : 0,
            "byteLength" : 732,
            "byteOffset" : 886212
        },
        {
            "buffer" : 0,
            "byteLength" : 17148,
            "byteOffset" : 886944
        },
        {
            "buffer" : 0,
            "byteLength" : 17148,
            "byteOffset" : 904092
        },
        {
            "buffer" : 0,
            "byteLength" : 11432,
            "byteOffset" : 921240
        },
        {
            "buffer" : 0,
            "byteLength" : 14304,
            "byteOffset" : 932672
        },
        {
            "buffer" : 0,
            "byteLength" : 1536,
            "byteOffset" : 946976
        },
        {
            "buffer" : 0,
            "byteLength" : 1536,
            "byteOffset" : 948512
        },
        {
            "buffer" : 0,
            "byteLength" : 1024,
            "byteOffset" : 950048
        },
        {
            "buffer" : 0,
            "byteLength" : 756,
            "byteOffset" : 951072
        },
        {
            "buffer" : 0,
            "byteLength" : 162408,
            "byteOffset" : 951828
        },
        {
            "buffer" : 0,
            "byteLength" : 162408,
            "byteOffset" : 1114236
        },
        {
            "buffer" : 0,
            "byteLength" : 108272,
            "byteOffset" : 1276644
        },
        {
            "buffer" : 0,
            "byteLength" : 157728,
            "byteOffset" : 1384916
        },
        {
            "buffer" : 0,
            "byteLength" : 134184,
            "byteOffset" : 1542644
        },
        {
            "buffer" : 0,
            "byteLength" : 134184,
            "byteOffset" : 1676828
        },
        {
            "buffer" : 0,
            "byteLength" : 89456,
            "byteOffset" : 1811012
        },
        {
            "buffer" : 0,
            "byteLength" : 127248,
            "byteOffset" : 1900468
        },
        {
            "buffer" : 0,
            "byteLength" : 3024,
            "byteOffset" : 2027716
        },
        {
            "buffer" : 0,
            "byteLength" : 3024,
            "byteOffset" : 2030740
        },
        {
            "buffer" : 0,
            "byteLength" : 2016,
            "byteOffset" : 2033764
        },
        {
            "buffer" : 0,
            "byteLength" : 1488,
            "byteOffset" : 2035780
        },
        {
            "buffer" : 0,
            "byteLength" : 6072,
            "byteOffset" : 2037268
        },
        {
            "buffer" : 0,
            "byteLength" : 6072,
            "byteOffset" : 2043340
        },
        {
            "buffer" : 0,
            "byteLength" : 4048,
            "byteOffset" : 2049412
        },
        {
            "buffer" : 0,
            "byteLength" : 6048,
            "byteOffset" : 2053460
        },
        {
            "buffer" : 0,
            "byteLength" : 4608,
            "byteOffset" : 2059508
        },
        {
            "buffer" : 0,
            "byteLength" : 4608,
            "byteOffset" : 2064116
        },
        {
            "buffer" : 0,
            "byteLength" : 3072,
            "byteOffset" : 2068724
        },
        {
            "buffer" : 0,
            "byteLength" : 2292,
            "byteOffset" : 2071796
        }
    ],
    "buffers" : [
        {
            "byteLength" : 2074088,
            "uri" : "data:application/octet-stream;base64,"
        }
    ]
}
